<svg height="511pt" viewBox="0 0 511 511.99978" width="511pt" xmlns="http://www.w3.org/2000/svg"><path d="m3.339844 485.542969-2.644532 13.804687c-1.414062 7.386719 5.070313 13.871094 12.457032 12.457032l13.804687-2.644532zm0 0"/><path d="m15.71875 420.964844-5.53125 28.847656 52.5 52.496094 28.84375-5.53125zm0 0"/><path d="m352.636719 138.578125-288.359375 288.359375-36.703125-36.703125 288.359375-288.359375zm0 0"/><path d="m85.558594 448.226562 288.363281-288.359374 36.695313 36.699218-288.359376 288.359375zm0 0"/><path d="m383.453125 34.351562 94.691406 94.691407 27.949219-27.953125c8.535156-8.53125 8.535156-22.363282 0-30.898438l-63.792969-63.792968c-8.53125-8.53125-22.363281-8.53125-30.898437 0zm0 0"/><path d="m431.917969 175.273438-94.691407-94.691407 24.9375-24.9375 94.691407 94.691407zm0 0"/></svg>